<svg xmlns="http://www.w3.org/2000/svg" viewBox="0 0 19.219 19.186" width="16px" height="16px"><defs><style>.a{fill:#748998;}</style></defs><g transform="translate(-6.4 -6.4)"><g transform="translate(6.4 6.4)"><path class="a" d="M42.522,43.647a.678.678,0,0,0,.958,0l4.462-4.462a.438.438,0,0,0,.083-.1.058.058,0,0,0,.017-.033.361.361,0,0,1,.05-.083c0-.017,0-.033.017-.033.017-.033.017-.05.033-.083a.537.537,0,0,0,0-.264.126.126,0,0,0-.033-.083c0-.017,0-.033-.017-.033l-.05-.1a.016.016,0,0,0-.017-.017.438.438,0,0,0-.083-.1L43.48,33.8a.678.678,0,0,0-.958.958l3.305,3.305H34.078a.678.678,0,1,0,0,1.355H45.827l-3.305,3.305a.639.639,0,0,0,0,.925Z" transform="translate(-28.938 -29.105)"/><path class="a" d="M7.078,25.586H16a.67.67,0,0,0,.678-.678v-6.66a.678.678,0,0,0-1.355,0v5.982H7.755V7.755h7.568v5.982a.678.678,0,1,0,1.355,0V7.078A.67.67,0,0,0,16,6.4H7.078a.67.67,0,0,0-.678.678V24.908A.691.691,0,0,0,7.078,25.586Z" transform="translate(-6.4 -6.4)"/></g></g></svg>