<svg xmlns="http://www.w3.org/2000/svg" viewBox="0 0 24.057 23.882" width="18px" height="18px"><defs><style>.a{fill:#fff;}</style></defs><g transform="translate(0 -1.688)"><g transform="translate(0 1.688)"><g transform="translate(0 0)"><path class="a" d="M254.06,423.184c-.2.049-.4.093-.6.13a.967.967,0,0,0,.352,1.9c.239-.044.48-.1.716-.156a.967.967,0,0,0-.467-1.877Z" transform="translate(-239.601 -401.36)"/><path class="a" d="M412.74,138.115a.967.967,0,0,0,1.836-.608c-.076-.231-.161-.463-.252-.689a.967.967,0,1,0-1.8.718C412.6,137.726,412.676,137.921,412.74,138.115Z" transform="translate(-391.13 -129.253)"/><path class="a" d="M321.875,394.072c-.171.113-.347.222-.524.324a.967.967,0,1,0,.966,1.675c.211-.122.421-.251.624-.385a.967.967,0,0,0-1.066-1.614Z" transform="translate(-304.273 -373.628)"/><path class="a" d="M429.568,208.241a.967.967,0,1,0-1.933.076c.008.2.01.411.005.615a.967.967,0,1,0,1.934.043C429.579,208.731,429.577,208.484,429.568,208.241Z" transform="translate(-405.52 -196.678)"/><path class="a" d="M378.725,344.262a.967.967,0,0,0-1.354.193c-.123.164-.252.325-.384.481a.967.967,0,0,0,.109,1.363c.023.02.047.038.071.055a.967.967,0,0,0,1.292-.164c.158-.186.312-.379.459-.574A.967.967,0,0,0,378.725,344.262Z" transform="translate(-357.273 -326.363)"/><path class="a" d="M415.229,279.4a.967.967,0,0,0-1.212.634c-.061.195-.129.39-.2.582a.967.967,0,0,0,1.807.689c.087-.228.167-.461.24-.692A.967.967,0,0,0,415.229,279.4Z" transform="translate(-392.355 -264.993)"/><path class="a" d="M10.24,23.651a9.986,9.986,0,0,1-2.481-.788l-.027-.015c-.185-.087-.37-.181-.55-.278l0,0a10.317,10.317,0,0,1-.962-.6,10.092,10.092,0,0,1,.042-16.53l.035-.024a10.109,10.109,0,0,1,11.33-.091l-.756,1.092c-.21.3-.081.525.287.492l3.282-.294a.541.541,0,0,0,.489-.707l-.881-3.176c-.1-.356-.351-.4-.562-.095l-.757,1.094A11.943,11.943,0,0,0,9.974,1.867q-.464.08-.916.2H9.052l-.035.01A11.925,11.925,0,0,0,2.405,6.506c-.014.016-.028.033-.041.051-.055.074-.109.15-.163.225-.087.124-.173.251-.255.378-.01.015-.018.031-.027.046A11.923,11.923,0,0,0,.013,14.238c0,.008,0,.016,0,.025.011.243.03.489.056.731,0,.016,0,.03.007.046.027.243.061.488.1.731a11.935,11.935,0,0,0,3.365,6.472l.012.013,0,0A12.186,12.186,0,0,0,5.1,23.548a11.924,11.924,0,0,0,4.8,2.007.967.967,0,0,0,.341-1.9Z" transform="translate(0 -1.688)"/><path class="a" d="M206.77,83.2a.783.783,0,0,0-.783.782v7.8l7.13,3.686a.782.782,0,0,0,.719-1.39l-6.284-3.249V83.98A.782.782,0,0,0,206.77,83.2Z" transform="translate(-195.335 -78.983)"/></g></g></g></svg>