<svg xmlns="http://www.w3.org/2000/svg" viewBox="0 0 22.356 22.356"><defs><style>.a{fill:#edf0f2;}.b{fill:#fff;}</style></defs><path class="a" d="M20.392,5.24H15.763V1.965A1.967,1.967,0,0,0,13.8,0H1.965A1.967,1.967,0,0,0,0,1.965V12.532A1.967,1.967,0,0,0,1.965,14.5H2.62v1.965a.655.655,0,0,0,1.118.463L6.166,14.5H6.55v3.275a1.967,1.967,0,0,0,1.965,1.965H16.19l2.428,2.428a.655.655,0,0,0,1.118-.463V19.737h.655a1.967,1.967,0,0,0,1.965-1.965V7.2A1.967,1.967,0,0,0,20.392,5.24Zm-14.5,7.947a.655.655,0,0,0-.463.192l-1.5,1.5V13.842a.655.655,0,0,0-.655-.655H1.965a.656.656,0,0,1-.655-.655V1.965a.656.656,0,0,1,.655-.655H13.8a.656.656,0,0,1,.655.655V12.532a.656.656,0,0,1-.655.655Zm15.152,4.585a.656.656,0,0,1-.655.655h-1.31a.655.655,0,0,0-.655.655V20.12l-1.5-1.5a.655.655,0,0,0-.463-.192H8.515a.656.656,0,0,1-.655-.655V14.5H13.8a1.967,1.967,0,0,0,1.965-1.965V6.55h4.628a.656.656,0,0,1,.655.655Z"/><g transform="translate(-496.543 -52.505)"><g transform="translate(501 56.5)"><rect class="b" width="1.344" height="6.721" transform="translate(2.689)"/><rect class="b" width="1.344" height="6.721" transform="translate(6.721 2.689) rotate(90)"/></g></g></svg>