<svg xmlns="http://www.w3.org/2000/svg" viewBox="0 0 16.531 16.554"><defs><style>.a,.c{fill:#fff;}.b,.c{stroke:none;}</style></defs><g transform="translate(-0.044 0.3)"><g transform="translate(0.344 0)"><g class="a" transform="translate(-0.344 -26.483)"><path class="b" d="M 11.81686687469482 42.58713150024414 C 11.74838733673096 42.58713150024414 11.67705726623535 42.58401107788086 11.59760665893555 42.58023071289063 C 10.42594718933105 42.50510025024414 9.368227005004883 42.06526947021484 8.577366828918457 41.69047927856445 C 6.532066822052002 40.70180130004883 4.74010705947876 39.29870986938477 3.250226974487305 37.51969909667969 C 2.028717041015625 36.05117034912109 1.202157020568848 34.6720085144043 0.6486769914627075 33.17900085449219 C 0.42010697722435 32.56251907348633 0.1258169859647751 31.62612915039063 0.2088269889354706 30.61611938476563 C 0.2658369839191437 29.9713191986084 0.5262569785118103 29.41328048706055 0.9829369783401489 28.95659065246582 L 2.127316951751709 27.80212020874023 L 2.134516954421997 27.7949104309082 C 2.502496957778931 27.44161987304688 2.93429708480835 27.25601005554199 3.385426998138428 27.25601005554199 C 3.835711002349854 27.25601005554199 4.261511325836182 27.44147491455078 4.616977691650391 27.79242324829102 C 4.841043472290039 27.99936866760254 5.055671691894531 28.21775245666504 5.254257202148438 28.42296981811523 C 5.35526704788208 28.53067016601563 5.462236881256104 28.63763999938965 5.56568717956543 28.74109077453613 L 6.484927177429199 29.66033935546875 C 6.860607147216797 30.03602981567383 7.059186935424805 30.47557067871094 7.059186935424805 30.93144989013672 C 7.059186935424805 31.3873291015625 6.860607147216797 31.82687950134277 6.484927177429199 32.20256805419922 C 6.43809700012207 32.2493896484375 6.391266822814941 32.29705810546875 6.344437122344971 32.34473037719727 C 6.296987056732178 32.39302825927734 6.249536991119385 32.44131851196289 6.202086925506592 32.4887809753418 L 6.130677223205566 32.56121063232422 C 5.927889347076416 32.76699447631836 5.718918323516846 32.97905731201172 5.496930599212646 33.18637084960938 C 5.694822788238525 33.60052108764648 5.958707332611084 34.00780868530273 6.341607093811035 34.49177932739258 C 7.197597026824951 35.54349136352539 8.092316627502441 36.35910797119141 9.075587272644043 36.98361968994141 C 9.166016578674316 37.03974151611328 9.277457237243652 37.0954704284668 9.39544677734375 37.15446090698242 C 9.426107406616211 37.17037963867188 9.454876899719238 37.18513870239258 9.483906745910645 37.20003128051758 C 9.509130477905273 37.21297454833984 9.534538269042969 37.22601699829102 9.56005859375 37.23923492431641 L 10.54591655731201 36.25650024414063 C 10.91372680664063 35.88867950439453 11.34861660003662 35.69417953491211 11.8033971786499 35.69417953491211 C 12.2618465423584 35.69417953491211 12.6928071975708 35.89059066772461 13.04969692230225 36.26218795776367 L 14.89634704589844 38.11555099487305 C 15.26394653320313 38.47948837280273 15.45863723754883 38.91571807861328 15.45863723754883 39.37635803222656 C 15.45863723754883 39.83198165893555 15.26834678649902 40.27079010009766 14.90834712982178 40.64535140991211 C 14.7824068069458 40.77714157104492 14.64174652099609 40.91672897338867 14.46596717834473 41.0843391418457 L 14.4198169708252 41.12899017333984 C 14.22968482971191 41.31283569335938 14.04996871948242 41.48661422729492 13.89445304870605 41.67398452758789 C 13.8916015625 41.67805099487305 13.88873386383057 41.68175888061523 13.88591766357422 41.68515014648438 L 13.88445663452148 41.68807983398438 L 13.87005710601807 41.70370101928711 C 13.33002662658691 42.28989791870117 12.63923740386963 42.58713150024414 11.81686687469482 42.58713150024414 Z M 3.392167091369629 28.46514892578125 C 3.262777090072632 28.46514892578125 3.121306896209717 28.53376960754395 2.98302698135376 28.6635799407959 L 1.83821702003479 29.80850028991699 C 1.585266947746277 30.06143951416016 1.447456955909729 30.3580493927002 1.416916966438293 30.71525955200195 C 1.367817044258118 31.31444931030273 1.481356978416443 31.94457054138184 1.785117030143738 32.75785827636719 C 2.287546873092651 34.11542892456055 3.04988694190979 35.3843994140625 4.184406757354736 36.7518196105957 C 5.560266971588135 38.39419937133789 7.21571683883667 39.69079971313477 9.104296684265137 40.60506057739258 C 9.788117408752441 40.93209838867188 10.69894695281982 41.31586074829102 11.6749267578125 41.37829971313477 C 11.72084712982178 41.3813591003418 11.77137660980225 41.3813591003418 11.820237159729 41.3813591003418 C 12.30335426330566 41.3813591003418 12.65947723388672 41.23163986206055 12.97442817687988 40.8959846496582 C 13.18882274627686 40.64389038085938 13.41743469238281 40.41926193237305 13.63263702392578 40.2140007019043 L 13.70843696594238 40.14017105102539 C 13.80789279937744 40.04347610473633 13.90255928039551 39.9514274597168 13.99444484710693 39.85494995117188 L 13.99445724487305 39.76300048828125 L 14.0805082321167 39.76228713989258 C 14.32512760162354 39.48176193237305 14.31048583984375 39.23418807983398 14.03804683685303 38.96438980102539 L 12.18220710754395 37.10857009887695 L 12.17546653747559 37.10182952880859 L 12.17302703857422 37.09938049316406 L 12.17069721221924 37.09682083129883 C 12.10365676879883 37.02330017089844 11.96591663360596 36.89994812011719 11.79666709899902 36.89994812011719 C 11.63651657104492 36.89994812011719 11.48945713043213 37.01340103149414 11.394287109375 37.10857009887695 L 10.24270725250244 38.26013946533203 C 10.05937671661377 38.44345855712891 9.851496696472168 38.53641128540039 9.62482738494873 38.53641128540039 C 9.48997688293457 38.53641128540039 9.358997344970703 38.50368881225586 9.224396705627441 38.4363899230957 C 9.213546752929688 38.43096923828125 9.202616691589355 38.42441940307617 9.191806793212891 38.41767120361328 C 9.188977241516113 38.41588973999023 9.186197280883789 38.4140510559082 9.183357238769531 38.41249847412109 L 9.177166938781738 38.40940856933594 L 9.171957015991211 38.40610122680664 C 9.080316543579102 38.34922027587891 8.969037055969238 38.29357147216797 8.851226806640625 38.23464965820313 C 8.711557388305664 38.16482162475586 8.567747116088867 38.09291839599609 8.423216819763184 38.00125885009766 C 7.330714225769043 37.31036376953125 6.342280864715576 36.41175079345703 5.401967525482178 35.25452041625977 L 5.40114688873291 35.25370025634766 L 5.392286777496338 35.24335098266602 C 4.867297172546387 34.57675170898438 4.525446891784668 34.01850128173828 4.283876895904541 33.43325805664063 L 4.281887054443359 33.42845153808594 L 4.280237197875977 33.42351150512695 L 4.270096778869629 33.39308166503906 C 4.197559356689453 33.16343307495117 4.141013145446777 32.82290267944336 4.472385406494141 32.48447036743164 C 4.483685970306396 32.47024154663086 4.494748592376709 32.46090698242188 4.501148223876953 32.45562744140625 L 4.501226902008057 32.45555114746094 L 4.504227161407471 32.45285797119141 C 4.786137104034424 32.20009994506836 5.043107032775879 31.94436073303223 5.342206954956055 31.63813018798828 C 5.409407138824463 31.57316970825195 5.471996784210205 31.50981903076172 5.535087108612061 31.44599914550781 C 5.567526817321777 31.41318893432617 5.60008716583252 31.38023948669434 5.633037090301514 31.34729957580566 C 5.932287216186523 31.04804039001465 5.932287216186523 30.81485939025879 5.633027076721191 30.51560974121094 L 4.713787078857422 29.59637069702148 C 4.658906936645508 29.5397891998291 4.605637073516846 29.48567962646484 4.55277681350708 29.4319896697998 C 4.498696804046631 29.37705993652344 4.445036888122559 29.32254981994629 4.392237186431885 29.2680492401123 C 4.171687126159668 29.04027938842773 3.985136985778809 28.85152053833008 3.791466951370239 28.6705493927002 L 3.777556896209717 28.65675926208496 C 3.690227031707764 28.56942939758301 3.552326917648315 28.46514892578125 3.392167091369629 28.46514892578125 Z"/><path class="c" d="M 11.81686687469482 42.43712997436523 C 12.59468746185303 42.43712997436523 13.24791717529297 42.15764999389648 13.75973701477051 41.60206985473633 C 13.76309680938721 41.59534072875977 13.76983737945557 41.59196853637695 13.77319717407227 41.58522796630859 C 13.94829654693604 41.37310028076172 14.1503267288208 41.18117141723633 14.36245727539063 40.97578048706055 C 14.50724697113037 40.83771896362305 14.6554069519043 40.69292831420898 14.80019664764404 40.54140853881836 C 15.13354682922363 40.194580078125 15.30863666534424 39.79053115844727 15.30863666534424 39.37635803222656 C 15.30863666534424 38.95882797241211 15.13017654418945 38.55812835693359 14.79008674621582 38.22142028808594 L 12.94150733947754 36.3660888671875 C 12.61488723754883 36.02600860595703 12.22092723846436 35.84418106079102 11.8033971786499 35.84418106079102 C 11.38923740386963 35.84418106079102 10.99190711975098 36.02264022827148 10.65181732177734 36.36272811889648 L 9.587786674499512 37.42338943481445 C 9.500237464904785 37.37625122070313 9.412696838378906 37.33248138427734 9.328516960144043 37.28870010375977 C 9.207297325134277 37.22808837890625 9.092806816101074 37.17084884643555 8.995166778564453 37.1102409362793 C 7.998476982116699 36.47721099853516 7.09270715713501 35.65224838256836 6.2239670753479 34.5848503112793 C 5.803067207336426 34.05282974243164 5.520226955413818 33.60499954223633 5.314826965332031 33.15042877197266 C 5.59093713760376 32.89788818359375 5.846847057342529 32.63525009155273 6.096016883850098 32.38270950317383 C 6.19029712677002 32.28842926025391 6.284576892852783 32.19078063964844 6.378857135772705 32.09650039672852 C 7.085967063903809 31.38938903808594 7.085967063903809 30.4735107421875 6.378857135772705 29.76640892028809 L 5.459617137908936 28.84716033935547 C 5.355237007141113 28.7427806854248 5.24748706817627 28.63503074645996 5.146467208862305 28.52727890014648 C 4.944437026977539 28.31851005554199 4.732306957244873 28.10301971435547 4.513436794281006 27.90097999572754 C 4.186817169189453 27.57773017883301 3.796226978302002 27.40600967407227 3.385426998138428 27.40600967407227 C 2.974637031555176 27.40600967407227 2.577306985855103 27.57773017883301 2.240586996078491 27.90097999572754 C 2.237216949462891 27.90435028076172 2.237216949462891 27.90435028076172 2.23384690284729 27.9077205657959 L 1.089007019996643 29.06266021728516 C 0.6580069661140442 29.49365997314453 0.4122069776058197 30.01893997192383 0.3583270013332367 30.62841033935547 C 0.2775169909000397 31.61161994934082 0.567097008228302 32.52750015258789 0.7893269658088684 33.12686157226563 C 1.334816932678223 34.59832000732422 2.149677038192749 35.96202850341797 3.365226984024048 37.42338943481445 C 4.840056896209717 39.18442916870117 6.614566802978516 40.57506942749023 8.641607284545898 41.554931640625 C 9.416056632995605 41.92195129394531 10.44978713989258 42.35631942749023 11.60472679138184 42.43040084838867 C 11.67544746398926 42.43376159667969 11.7495174407959 42.43712997436523 11.81686687469482 42.43712997436523 M 3.392167091369629 28.31514930725098 C 3.604296922683716 28.31514930725098 3.776026964187622 28.44309997558594 3.883776903152466 28.55084991455078 C 3.887136936187744 28.55422019958496 3.890506982803345 28.55759048461914 3.893877029418945 28.56094932556152 C 4.099277019500732 28.75288009643555 4.294567108154297 28.9515495300293 4.499967098236084 29.1636791229248 C 4.60435676574707 29.27142906188965 4.712107181549072 29.37917900085449 4.819857120513916 29.49029922485352 L 5.739097118377686 30.4095401763916 C 6.096016883850098 30.76646041870117 6.096016883850098 31.09643936157227 5.739097118377686 31.453369140625 C 5.641447067260742 31.55101013183594 5.54716682434082 31.64866065979004 5.449516773223877 31.74293899536133 C 5.166676998138428 32.03252029418945 4.897296905517578 32.30189895629883 4.60435676574707 32.56454086303711 C 4.597617149353027 32.57126998901367 4.590887069702148 32.57463836669922 4.587516784667969 32.58137893676758 C 4.297936916351318 32.8709602355957 4.35181713104248 33.15380096435547 4.412426948547363 33.34572982788086 C 4.415787220001221 33.35583114624023 4.419157028198242 33.36592864990234 4.422526836395264 33.37602996826172 C 4.661596775054932 33.9551887512207 4.998316764831543 34.50067138671875 5.510127067565918 35.15053939819336 L 5.513496875762939 35.15391159057617 C 6.442836761474609 36.29874801635742 7.42268705368042 37.1910514831543 8.503557205200195 37.87458801269531 C 8.641607284545898 37.96213912963867 8.783026695251465 38.0328483581543 8.917716979980469 38.10018920898438 C 9.038936614990234 38.16080856323242 9.153416633605957 38.21804046630859 9.251067161560059 38.27865982055664 C 9.26453685760498 38.2853889465332 9.278006553649902 38.29549026489258 9.291477203369141 38.30223083496094 C 9.405957221984863 38.35947036743164 9.513707160949707 38.38640975952148 9.62482738494873 38.38640975952148 C 9.90430736541748 38.38640975952148 10.07939720153809 38.21131134033203 10.13663673400879 38.15406799316406 L 11.28821659088135 37.00249862670898 C 11.40270709991455 36.88800811767578 11.58452701568604 36.74995040893555 11.79666709899902 36.74995040893555 C 12.00542736053467 36.74995040893555 12.17715740203857 36.88127899169922 12.28153705596924 36.99575805664063 C 12.28490734100342 36.99913024902344 12.28490734100342 36.99913024902344 12.28827667236328 37.00249862670898 L 14.14359664916992 38.85781097412109 C 14.49041652679443 39.20125961303711 14.49041652679443 39.5548210144043 14.14695739746094 39.91173934936523 C 14.01563739776611 40.05316162109375 13.88095664978027 40.18111038208008 13.73616695404053 40.32254028320313 C 13.51729679107666 40.53129959106445 13.29506683349609 40.75017166137695 13.08629703521729 40.99597930908203 C 12.74620723724365 41.3596305847168 12.3455171585083 41.5313606262207 11.820237159729 41.5313606262207 C 11.76972675323486 41.5313606262207 11.71584701538086 41.5313606262207 11.6653470993042 41.52798843383789 C 10.66528701782227 41.46400833129883 9.735946655273438 41.07342147827148 9.038936614990234 40.74007034301758 C 7.13310718536377 39.81745910644531 5.459617137908936 38.50762939453125 4.068966865539551 36.84759902954102 C 2.920757055282593 35.46368026733398 2.153037071228027 34.18415069580078 1.644596934318542 32.81034088134766 C 1.331447005271912 31.97191047668457 1.216966986656189 31.31867980957031 1.267467021942139 30.70248031616211 C 1.301146984100342 30.30851936340332 1.452666997909546 29.98191070556641 1.732146978378296 29.70243072509766 L 2.880357027053833 28.55422019958496 C 3.045346975326538 28.39933013916016 3.220437049865723 28.31514930725098 3.392167091369629 28.31514930725098 M 14.1447172164917 39.91323852539063 C 14.14509010314941 39.91323852539063 14.14583683013916 39.91286468505859 14.14695739746094 39.91173934936523 C 14.1447172164917 39.91173934936523 14.14397048950195 39.91323852539063 14.1447172164917 39.91323852539063 M 11.81686687469482 42.73712921142578 C 11.74509716033936 42.73712921142578 11.67187690734863 42.73392868041992 11.59048652648926 42.73006057739258 C 10.3909273147583 42.65316009521484 9.31607723236084 42.20655059814453 8.513127326965332 41.82603073120117 C 6.447526931762695 40.82754135131836 4.638846874237061 39.41141891479492 3.135226964950562 37.61600875854492 C 1.902197003364563 36.13364028930664 1.067597031593323 34.74055862426758 0.5080369710922241 33.23114013671875 C 0.2744869887828827 32.60126113891602 -0.02612300775945187 31.64360046386719 0.05933699384331703 30.60383987426758 C 0.1195969954133034 29.92206954956055 0.3946069777011871 29.33279991149902 0.8768770098686218 28.85053062438965 L 2.020787000656128 27.69651985168457 L 2.028456926345825 27.68885040283203 L 2.030616998672485 27.68667984008789 L 2.032826900482178 27.68456077575684 C 2.427097082138062 27.30607032775879 2.894816875457764 27.10601043701172 3.385426998138428 27.10601043701172 C 3.875237226486206 27.10601043701172 4.336833953857422 27.30584716796875 4.720617294311523 27.6839485168457 C 4.946709156036377 27.89288520812988 5.162487030029297 28.11243629455566 5.36204719543457 28.31866073608398 C 5.463037014007568 28.42631912231445 5.569137096405029 28.53241920471191 5.671747207641602 28.63503074645996 L 6.590987205505371 29.55427932739258 C 6.99541711807251 29.95870018005371 7.209187030792236 30.4349193572998 7.209187030792236 30.93144989013672 C 7.209187030792236 31.42798042297363 6.99541711807251 31.90419960021973 6.590987205505371 32.30862808227539 C 6.544466972351074 32.35514831542969 6.497957229614258 32.40250015258789 6.451436996459961 32.44984817504883 C 6.403676986694336 32.49847030639648 6.355906963348389 32.54708099365234 6.308146953582764 32.59484100341797 L 6.2375168800354 32.66650009155273 C 6.058366775512695 32.84830093383789 5.874453544616699 33.03493118286133 5.680384159088135 33.21955871582031 C 5.867762565612793 33.59037780761719 6.113924503326416 33.96223831176758 6.459237098693848 34.39871978759766 C 7.303586959838867 35.43610000610352 8.186556816101074 36.24126815795898 9.156006813049316 36.85699844360352 C 9.239267349243164 36.90866088867188 9.34771728515625 36.962890625 9.462527275085449 37.02029037475586 C 9.48721981048584 37.03310394287109 9.509599685668945 37.04461669921875 9.531524658203125 37.05587387084961 L 10.440016746521 36.15026092529297 C 10.83640670776367 35.75387954711914 11.30796718597412 35.5441780090332 11.8033971786499 35.5441780090332 C 12.30274105072021 35.5441780090332 12.77033138275146 35.75577545166016 13.15577697753906 36.15609741210938 L 15.00260734558105 38.00967025756836 C 15.3985767364502 38.40169906616211 15.6086368560791 38.87479019165039 15.6086368560791 39.37635803222656 C 15.6086368560791 39.87149047851563 15.40387725830078 40.34624862670898 15.01648712158203 40.74929809570313 C 14.88921737670898 40.88248825073242 14.74698734283447 41.02365112304688 14.56948661804199 41.19290161132813 L 14.52408695220947 41.23682022094727 C 14.33849620819092 41.41627502441406 14.16298961639404 41.58597946166992 14.01348114013672 41.76544952392578 L 14.0091667175293 41.77408981323242 L 13.98037719726563 41.80532836914063 C 13.41078662872314 42.42362976074219 12.68287658691406 42.73712921142578 11.81686687469482 42.73712921142578 Z M 3.088898897171021 28.76993751525879 L 1.944277048110962 29.91456031799316 C 1.714236974716187 30.14459991455078 1.594156980514526 30.40308952331543 1.56637704372406 30.72802925109863 C 1.519207000732422 31.30362892150879 1.629976987838745 31.91378021240234 1.925637006759644 32.70536804199219 C 2.422157049179077 34.04697799682617 3.176476955413818 35.30207061767578 4.29984712600708 36.65604019165039 C 5.661547183990479 38.28150939941406 7.300286769866943 39.56509017944336 9.169656753540039 40.47005081176758 C 9.840646743774414 40.79095077514648 10.73418712615967 41.16780090332031 11.68449687957764 41.22859954833984 C 11.7258472442627 41.23136138916016 11.77382659912109 41.23136138916016 11.820237159729 41.23136138916016 C 12.25715732574463 41.23136138916016 12.57892322540283 41.09703826904297 12.86258316040039 40.79596328735352 C 13.08071136474609 40.5398063659668 13.31177139282227 40.31275177001953 13.52910709381104 40.10544967651367 L 13.60387706756592 40.03261947631836 C 13.68723392486572 39.95157623291016 13.7671947479248 39.87383270263672 13.84443664550781 39.79447174072266 L 13.84443664550781 39.61301040649414 L 14.01014232635498 39.61231231689453 C 14.15769290924072 39.41909408569336 14.13174343109131 39.26828002929688 13.9325065612793 39.07098007202148 L 12.07614707946777 37.21463012695313 L 12.06940746307373 37.20788955688477 L 12.0645170211792 37.20299911499023 L 12.05984687805176 37.19789123535156 C 12.01929664611816 37.15340805053711 11.91246700286865 37.04994964599609 11.79666709899902 37.04994964599609 C 11.7130069732666 37.04994964599609 11.60500717163086 37.10997009277344 11.50034713745117 37.21463012695313 L 10.34876728057861 38.3661994934082 C 10.13629722595215 38.57867813110352 9.892726898193359 38.68640899658203 9.62482738494873 38.68640899658203 C 9.466147422790527 38.68640899658203 9.313226699829102 38.64850997924805 9.157317161560059 38.57056045532227 C 9.142336845397949 38.56306838989258 9.127206802368164 38.55418014526367 9.112317085266113 38.54486846923828 L 9.11090087890625 38.54399108886719 L 9.104597091674805 38.54084014892578 L 9.092837333679199 38.53353881835938 C 9.00706672668457 38.48028945922852 8.898777008056641 38.42613983154297 8.784136772155762 38.36880874633789 C 8.647767066955566 38.30062866210938 8.493846893310547 38.22367858886719 8.342886924743652 38.1279411315918 C 7.238405227661133 37.42946624755859 6.239742279052734 36.52235794067383 5.29041862487793 35.3550910949707 L 5.288806915283203 35.35348129272461 L 5.274446964263916 35.33615112304688 C 4.740557193756104 34.65824890136719 4.392286777496338 34.08903121948242 4.145226955413818 33.49050140380859 L 4.141246795654297 33.48086929321289 L 4.137947082519531 33.47098159790039 L 4.127767086029053 33.4404296875 C 4.078359127044678 33.28409576416016 3.933308839797974 32.82487106323242 4.360824108123779 32.38403701782227 C 4.377838611602783 32.36381912231445 4.39361047744751 32.34999847412109 4.402880668640137 32.34225082397461 L 4.404087066650391 32.34117126464844 C 4.682937145233154 32.09117126464844 4.937887191772461 31.8374195098877 5.234907150268555 31.5333194732666 L 5.237977027893066 31.53017044067383 L 5.241137027740479 31.52712059020996 C 5.30437707901001 31.46606063842773 5.366147041320801 31.40353965759277 5.428407192230225 31.34054946899414 C 5.461047172546387 31.30752944946289 5.493826866149902 31.27437973022461 5.526977062225342 31.24123001098633 C 5.767257213592529 31.00094032287598 5.767257213592529 30.86196899414063 5.52696704864502 30.62166976928711 L 4.60772705078125 29.70243072509766 C 4.551486968994141 29.64447975158691 4.498476982116699 29.59065055847168 4.445887088775635 29.53722953796387 C 4.391517162322998 29.48200035095215 4.337576866149902 29.42720985412598 4.284506797790527 29.37242889404297 C 4.065486907958984 29.146240234375 3.880446910858154 28.9589900970459 3.689056873321533 28.78014945983887 L 3.68550705909729 28.77683067321777 L 3.682056903839111 28.77339935302734 L 3.671326875686646 28.76267051696777 C 3.604207038879395 28.6955394744873 3.500977039337158 28.61515045166016 3.392167091369629 28.61515045166016 C 3.302511215209961 28.61515045166016 3.197706937789917 28.66865730285645 3.088898897171021 28.76993751525879 Z"/></g><g class="a" transform="translate(-236.708 -83.032)"><path class="b" d="M 249.2945404052734 90.88294219970703 C 248.9978332519531 90.88294219970703 248.7472686767578 90.67162322998047 248.6987457275391 90.38047790527344 C 248.5524749755859 89.52892303466797 248.1500854492188 88.75341796875 247.5351715087891 88.13852691650391 C 246.9163665771484 87.51970672607422 246.1410522460938 87.11734771728516 245.2930450439453 86.97492218017578 C 245.1360321044922 86.94947814941406 244.9980316162109 86.86335754394531 244.9052581787109 86.73256683349609 C 244.8106994628906 86.5992431640625 244.7744445800781 86.43689727783203 244.8031921386719 86.27542877197266 C 244.8548126220703 85.985595703125 245.1062164306641 85.77524566650391 245.4009857177734 85.77524566650391 C 245.4339752197266 85.77524566650391 245.4673461914063 85.77793884277344 245.5001525878906 85.78325653076172 C 246.5994873046875 85.97051239013672 247.5996856689453 86.4891357421875 248.3938140869141 87.28324890136719 C 249.1879272460938 88.07738494873047 249.70654296875 89.07758331298828 249.8936157226563 90.17572784423828 C 249.9197387695313 90.33683776855469 249.8828430175781 90.49722290039063 249.7898712158203 90.62852478027344 C 249.6960754394531 90.76101684570313 249.5561828613281 90.84829711914063 249.3959655761719 90.87427520751953 L 249.3932647705078 90.87470245361328 L 249.3905334472656 90.87504577636719 L 249.3824615478516 90.87606811523438 C 249.3569946289063 90.87929534912109 249.328125 90.88294219970703 249.2945404052734 90.88294219970703 Z"/><path class="c" d="M 245.4010009765625 85.92523956298828 C 245.1817626953125 85.92523193359375 244.9902038574219 86.08084106445313 244.9508666992188 86.30171203613281 C 244.9071044921875 86.54752349853516 245.0687103271484 86.78659820556641 245.3178863525391 86.82699584960938 C 246.2000885009766 86.97515869140625 247.0014801025391 87.39268493652344 247.6412506103516 88.03245544433594 C 248.2810211181641 88.67221832275391 248.6951751708984 89.47361755371094 248.8466949462891 90.35581207275391 C 248.8837432861328 90.57804870605469 249.0756683349609 90.73294830322266 249.2945404052734 90.73294830322266 C 249.3214874267578 90.73294830322266 249.3450469970703 90.72956848144531 249.3719635009766 90.72620391845703 C 249.6211700439453 90.68579864501953 249.7861480712891 90.45009613037109 249.7457427978516 90.20091247558594 C 249.5639190673828 89.13352203369141 249.0588226318359 88.16040802001953 248.2877349853516 87.38931274414063 C 247.5166473388672 86.61823272705078 246.5435638427734 86.1131591796875 245.4761505126953 85.93132781982422 C 245.4508666992188 85.92723083496094 245.4257507324219 85.92523956298828 245.4010009765625 85.92523956298828 M 245.4009552001953 85.625244140625 C 245.4420013427734 85.625244140625 245.4834747314453 85.62859344482422 245.5241851806641 85.63519287109375 C 246.6554870605469 85.82789611816406 247.6836547851563 86.36097717285156 248.4998626708984 87.17718505859375 C 249.3160858154297 87.99341583251953 249.8491668701172 89.02158355712891 250.0414733886719 90.15053558349609 C 250.0741424560547 90.35189819335938 250.0281219482422 90.55159759521484 249.9123077392578 90.71519470214844 C 249.7950744628906 90.88078308105469 249.6202239990234 90.9898681640625 249.4199829101563 91.0223388671875 L 249.4145660400391 91.02321624755859 L 249.4091339111328 91.02389526367188 L 249.4013061523438 91.02487182617188 C 249.3729248046875 91.02847290039063 249.3375854492188 91.03294372558594 249.2945404052734 91.03294372558594 C 248.9242095947266 91.03294372558594 248.6114044189453 90.76891326904297 248.55078125 90.40513610839844 C 248.4099273681641 89.58504486083984 248.02197265625 88.83743286132813 247.4291229248047 88.24458312988281 C 246.8324890136719 87.64796447753906 246.0852661132813 87.26007843017578 245.2682037353516 87.12285614013672 C 245.0720520019531 87.09105682373047 244.8991088867188 86.98317718505859 244.7829132080078 86.81934356689453 C 244.6666259765625 86.6553955078125 244.6201934814453 86.44756317138672 244.6555023193359 86.24913787841797 C 244.7198944091797 85.88761901855469 245.0334014892578 85.625244140625 245.4009552001953 85.625244140625 Z"/></g><g class="a" transform="translate(-240.41 0)"><path class="b" d="M 255.8861999511719 7.713076114654541 C 255.5895080566406 7.713076114654541 255.3389434814453 7.501766204833984 255.2904052734375 7.210626125335693 C 255.0295104980469 5.67163610458374 254.3022918701172 4.268656253814697 253.1873931884766 3.153746128082275 C 252.0685729980469 2.038246154785156 250.6655426025391 1.31096625328064 249.1301116943359 1.050666213035583 C 248.7972412109375 0.992196261882782 248.5794525146484 0.6860262155532837 248.6333618164063 0.3534862399101257 C 248.6854705810547 0.06088624522089958 248.9342498779297 -0.1498237550258636 249.2252807617188 -0.1498237550258636 C 249.2600555419922 -0.1498237550258636 249.295166015625 -0.1467137634754181 249.3296508789063 -0.1405737549066544 C 251.1173706054688 0.1642262488603592 252.7463073730469 1.008866190910339 254.0392913818359 2.301846265792847 C 255.332275390625 3.594826221466064 256.1769409179688 5.223776340484619 256.4819030761719 7.012586116790771 C 256.5101013183594 7.170956134796143 256.4735412597656 7.331526279449463 256.3786926269531 7.463646411895752 C 256.2843322753906 7.595136165618896 256.1448669433594 7.680736064910889 255.9859771728516 7.704676151275635 L 255.9742431640625 7.706196308135986 C 255.9474945068359 7.70957612991333 255.9198303222656 7.713076114654541 255.8861999511719 7.713076114654541 Z"/><path class="c" d="M 255.8861999511719 7.563076019287109 C 255.9131469726563 7.563076019287109 255.9367065429688 7.559706211090088 255.963623046875 7.556346416473389 C 256.2094421386719 7.519306182861328 256.3778076171875 7.283596038818359 256.3340454101563 7.037796020507813 C 256.0343627929688 5.280126094818115 255.2060241699219 3.680706262588501 253.9332275390625 2.407916307449341 C 252.6604309082031 1.135116219520569 251.06103515625 0.3067862391471863 249.3033447265625 0.007106243632733822 C 249.2771148681641 0.002433774527162313 249.2509918212891 0.00017710289102979 249.2252807617188 0.00017710289102979 C 249.0100708007813 0.00017710289102979 248.820556640625 0.1579355150461197 248.7814331054688 0.3774962425231934 C 248.7410278320313 0.6266762614250183 248.906005859375 0.8590062260627747 249.1551818847656 0.9027762413024902 C 250.7243041992188 1.168786287307739 252.1553344726563 1.912936210632324 253.29345703125 3.04767632484436 C 254.4315490722656 4.185786247253418 255.17236328125 5.616846084594727 255.4383544921875 7.185956478118896 C 255.4754028320313 7.408186435699463 255.6673583984375 7.563076019287109 255.8861999511719 7.563076019287109 M 255.8861999511719 7.863076210021973 C 255.5158843994141 7.863076210021973 255.2030944824219 7.599056243896484 255.1424407958984 7.235286235809326 C 254.8868560791016 5.727566242218018 254.1740875244141 4.352586269378662 253.0813293457031 3.259806156158447 C 251.9847717285156 2.166516304016113 250.6096801757813 1.453636288642883 249.1050415039063 1.198556184768677 C 248.6895294189453 1.125576257705688 248.4180908203125 0.7439562678337097 248.4853057861328 0.3294762372970581 C 248.5505828857422 -0.03710375726222992 248.8614501953125 -0.2998237609863281 249.2252807617188 -0.2998237609863281 C 249.2688140869141 -0.2998237609863281 249.3127746582031 -0.2959337532520294 249.3559112548828 -0.2882537543773651 C 251.1733703613281 0.02160624414682388 252.8302764892578 0.880706250667572 254.1453552246094 2.195786237716675 C 255.4604339599609 3.510856151580811 256.3195495605469 5.167756080627441 256.6297912597656 6.98737621307373 C 256.6649475097656 7.184856414794922 256.6192016601563 7.385826110839844 256.5005493164063 7.551106452941895 C 256.3823852539063 7.715756416320801 256.2075805664063 7.822976112365723 256.0083312988281 7.852996349334717 L 256.0045776367188 7.85356616973877 L 256.0007934570313 7.854036331176758 L 255.9930725097656 7.855006217956543 C 255.9646453857422 7.858606338500977 255.9292755126953 7.863076210021973 255.8861999511719 7.863076210021973 Z"/></g></g></g></svg>