<svg xmlns="http://www.w3.org/2000/svg" viewBox="0 0 14.5 16.174"><defs><style>.a{fill:#fff;stroke:#fff;stroke-width:0.5px;}</style></defs><g transform="translate(0.25 0.258)"><path class="a" d="M33.382,10.953A.392.392,0,0,0,33.8,10.9l6.177-5.115a.39.39,0,0,0,.141-.3.379.379,0,0,0-.144-.3L33.8.09a.391.391,0,0,0-.639.3V3.069c-7.082.256-7.053,5.627-7.04,8.229v.31a.387.387,0,0,0,.291.377.352.352,0,0,0,.1.013.4.4,0,0,0,.342-.2c2.091-3.683,3.811-3.862,6.308-3.872V10.6A.4.4,0,0,0,33.382,10.953Zm-6.474-.726A8.207,8.207,0,0,1,27.714,6.6c.985-1.822,2.893-2.724,5.838-2.753a.391.391,0,0,0,.387-.39V1.222l5.17,4.265L33.942,9.764V7.536a.4.4,0,0,0-.115-.278.392.392,0,0,0-.278-.115C30.809,7.146,28.919,7.309,26.908,10.228Z" transform="translate(-26.115 0)"/><path class="a" d="M39.978,247.128V239.9a.393.393,0,1,0-.786,0v6.832H26.842V245.4a.393.393,0,1,0-.786,0v1.72a.393.393,0,0,0,.393.393H39.585A.392.392,0,0,0,39.978,247.128Z" transform="translate(-26.055 -231.852)"/></g></svg>